<?xml version="1.0" encoding="utf-8"?>
<!-- Generator: Adobe Illustrator 27.2.0, SVG Export Plug-In . SVG Version: 6.00 Build 0)  -->
<svg version="1.1" id="Calque_1" xmlns="http://www.w3.org/2000/svg" xmlns:xlink="http://www.w3.org/1999/xlink" x="0px" y="0px"
	 viewBox="0 0 1600 1600" style="enable-background:new 0 0 1600 1600;" xml:space="preserve">
<style type="text/css">
	.st0{fill-rule:evenodd;clip-rule:evenodd;fill:#FFFFFF;}
</style>
<g>
	<rect x="-0.4" y="-0.8" width="1600" height="1600"/>
</g>
<path class="st0" d="M1284.5,1284.1h-199.3V944.7c0-93-35.4-145-109-145c-80.1,0-122,54.1-122,145v339.4h-192V637.6h192v87.1
	c0,0,57.7-106.8,194.9-106.8c137.1,0,235.3,83.7,235.3,256.9V1284.1z M433.1,552.9c-65.4,0-118.4-53.4-118.4-119.3
	s53-119.3,118.4-119.3s118.4,53.4,118.4,119.3S498.5,552.9,433.1,552.9z M334,1284.1h200.2V637.6H334V1284.1z"/>
</svg>
